<?xml version="1.0" encoding="utf-8"?>
<!-- Generator: Adobe Illustrator 24.0.0, SVG Export Plug-In . SVG Version: 6.00 Build 0)  -->
<svg version="1.1"
	 id="svg3001" xmlns:cc="http://creativecommons.org/ns#" xmlns:dc="http://purl.org/dc/elements/1.1/" xmlns:inkscape="http://www.inkscape.org/namespaces/inkscape" xmlns:rdf="http://www.w3.org/1999/02/22-rdf-syntax-ns#" xmlns:sodipodi="http://sodipodi.sourceforge.net/DTD/sodipodi-0.dtd" xmlns:svg="http://www.w3.org/2000/svg"
	 xmlns="http://www.w3.org/2000/svg" xmlns:xlink="http://www.w3.org/1999/xlink" x="0px" y="0px" viewBox="0 0 1000 1000"
	 style="enable-background:new 0 0 1000 1000;" xml:space="preserve">
<sodipodi:namedview  bordercolor="#666666" borderopacity="1" gridtolerance="10" guidetolerance="10" id="namedview3007" inkscape:current-layer="svg3001" inkscape:cx="896" inkscape:cy="896" inkscape:pageopacity="0" inkscape:pageshadow="2" inkscape:window-height="480" inkscape:window-maximized="0" inkscape:window-width="640" inkscape:window-x="0" inkscape:window-y="25" inkscape:zoom="0.13169643" objecttolerance="10" pagecolor="#ffffff" showgrid="false">
	</sodipodi:namedview>
<g id="g3003" transform="matrix(1,0,0,-1,387.25424,1293.0169)">
	<path id="path3005" inkscape:connector-curvature="0" d="M400.3,892.9c0-9.7-3.5-18-10.6-25.1c-7.1-7.1-15.4-10.6-25.1-10.6h-500
		c-9.7,0-18,3.5-25.1,10.6c-7.1,7.1-10.6,15.4-10.6,25.1s3.5,18,10.6,25.1l250,250c7.1,7.1,15.4,10.6,25.1,10.6
		c9.7,0,18-3.5,25.1-10.6l250-250C396.7,910.9,400.3,902.6,400.3,892.9z"/>
</g>
</svg>
