<svg id="Layer" enable-background="new 0 0 512 512" height="512" viewBox="0 0 512 512" width="512" xmlns="http://www.w3.org/2000/svg"><path fill="#1633ff" d="m415.996 255.675c-.176-74.84-61.111-135.672-135.991-135.675-.113 0-.226.003-.34.004-74.837.182-135.665 61.117-135.665 135.996v.005c0 .107.003.213.004.32.176 74.795 61.038 135.598 135.856 135.674.039 0 .079.004.118.004.041 0 .082-.003.124-.004 74.944-.056 135.898-61.042 135.898-135.999 0-.002 0-.003 0-.005 0-.107-.003-.213-.004-.32zm-56.986-38.393c-16.184-2.952-32.937-2.646-49.302 1.058-6.212-4.911-13.657-8.32-21.793-9.676-1.733-13.497.223-27.171 5.652-39.618 28.791 4.475 53.005 22.957 65.443 48.236zm-117.727-40.293c-2.952 16.184-2.646 32.938 1.058 49.302-4.911 6.212-8.32 13.658-9.676 21.794-13.497 1.734-27.171-.224-39.618-5.653 4.474-28.79 22.956-53.005 48.236-65.443zm-40.297 117.722c7.269 1.326 14.652 2.001 22.064 2.001 9.088 0 18.216-1.024 27.229-3.063 6.214 4.916 13.664 8.329 21.806 9.686 1.733 13.497-.223 27.171-5.652 39.618-28.793-4.474-53.009-22.959-65.447-48.242zm117.731 40.3c2.952-16.184 2.646-32.938-1.058-49.302 4.911-6.212 8.32-13.657 9.676-21.793 13.497-1.733 27.171.223 39.618 5.652-4.474 28.79-22.956 53.005-48.236 65.443z"/><path fill="#000000" d="m458 104h-59.344c-4.691 0-6.825 5.91-3.177 8.859 41.765 33.758 68.521 85.381 68.521 143.141s-26.756 109.383-68.521 143.141c-3.649 2.949-1.515 8.859 3.177 8.859h59.344c29.823 0 54-24.177 54-54v-196c0-29.823-24.177-54-54-54z"/><path fill="#000000" d="m164.521 399.141c-41.765-33.758-68.521-85.381-68.521-143.141s26.756-109.383 68.521-143.141c3.649-2.949 1.515-8.859-3.177-8.859h-65.344v-24c0-13.255-10.745-24-24-24h-48c-13.255 0-24 10.745-24 24s10.745 24 24 24h24v304 24c0 13.255 10.745 24 24 24s24-10.745 24-24v-24h65.344c4.692 0 6.826-5.91 3.177-8.859z"/></svg>