<?xml version="1.0" standalone="no"?>
<!DOCTYPE svg PUBLIC "-//W3C//DTD SVG 20010904//EN"
 "http://www.w3.org/TR/2001/REC-SVG-20010904/DTD/svg10.dtd">
<svg version="1.0" xmlns="http://www.w3.org/2000/svg"
 width="512.000000pt" height="512.000000pt" viewBox="0 0 512.000000 512.000000"
 preserveAspectRatio="xMidYMid meet">
<metadata>
Created by potrace 1.11, written by Peter Selinger 2001-2013
</metadata>
<g transform="translate(0.000000,512.000000) scale(0.100000,-0.100000)"
fill="#000000" stroke="none">
<path d="M528 4288 c-165 -21 -241 -200 -141 -331 50 -64 97 -80 243 -80 l127
-1 0 -1442 0 -1443 24 -48 c79 -153 293 -152 371 2 17 33 21 60 22 167 1 106
4 128 16 129 8 0 138 1 289 1 253 0 275 2 292 19 10 10 16 25 13 33 -3 7 -43
48 -90 91 -46 42 -112 112 -146 154 -34 42 -65 78 -68 81 -6 6 -15 20 -84 135
-145 243 -219 508 -220 795 0 83 9 219 19 270 52 276 150 500 312 713 52 68
248 267 263 267 14 0 12 56 -2 67 -8 6 -126 10 -296 10 -155 0 -286 3 -290 7
-4 4 -7 60 -8 124 -1 160 -22 206 -111 259 -41 24 -48 25 -261 26 -120 1 -243
-1 -274 -5z"/>
<path d="M3765 3860 c-20 -22 -13 -52 18 -73 32 -21 144 -132 203 -202 125
-145 236 -346 298 -537 53 -161 70 -278 71 -468 0 -188 -7 -260 -35 -380 -81
-335 -237 -593 -513 -847 -62 -57 -68 -74 -36 -96 17 -12 73 -14 327 -13 294
3 309 4 367 26 143 55 226 138 286 285 l24 60 0 945 0 945 -22 57 c-55 142
-147 233 -288 288 -58 23 -72 23 -372 26 -291 2 -313 1 -328 -16z"/>
<path d="M2679 3736 c-2 -2 -34 -6 -70 -10 -143 -13 -335 -84 -476 -175 -253
-164 -433 -415 -512 -716 -36 -139 -36 -407 0 -550 43 -166 142 -365 236 -472
245 -278 525 -416 868 -429 552 -20 1044 348 1185 886 24 90 34 177 34 300 -1
382 -186 733 -507 958 -120 84 -319 169 -438 187 -24 4 -47 9 -51 11 -9 6
-263 16 -269 10z m305 -446 c185 -57 355 -191 443 -348 l22 -40 -127 6 c-71 2
-164 0 -211 -7 -81 -11 -86 -10 -125 13 -23 13 -67 33 -98 43 l-57 20 3 89 c3
91 7 114 33 197 17 55 22 56 117 27z m-560 -97 c-14 -101 -10 -228 10 -337 4
-22 -5 -51 -34 -109 -22 -44 -40 -88 -40 -98 0 -22 3 -21 -70 -23 -72 -2 -148
8 -216 30 l-56 17 5 42 c18 143 146 344 289 455 24 18 109 70 116 70 1 0 0
-21 -4 -47z m966 -709 c8 -3 26 -8 39 -10 13 -3 39 -11 58 -19 32 -14 34 -17
28 -47 -37 -178 -155 -360 -299 -462 -112 -79 -102 -87 -102 87 1 140 -6 243
-18 254 -3 3 9 27 25 53 16 26 36 71 44 98 10 32 22 52 33 55 24 5 174 -2 192
-9z m-827 -283 c28 -16 71 -35 95 -42 46 -13 44 -9 44 -112 1 -55 -19 -156
-39 -206 -13 -31 -16 -33 -51 -26 -134 25 -280 105 -380 207 -54 55 -142 173
-142 191 0 5 19 6 46 2 59 -8 235 -6 294 4 72 13 78 12 133 -18z"/>
</g>
</svg>
